<svg xmlns="http://www.w3.org/2000/svg" viewBox="0 0 415.41 149.98"><defs><style>.cls-1{fill:#497532;}.cls-1,.cls-2{fill-rule:evenodd;}.cls-2{fill:#9d9a99;}</style></defs><title>logo.svg</title><g id="Camada_2" data-name="Camada 2"><g id="Layer_1" data-name="Layer 1"><path class="cls-1" d="M125.89,0c-39.7,20.9-38,20.1-38,46.6-2.7,0-4.1-9.7-4.4-12.7-2.9,2.2-31.5,44.2-29.9,53.7,8.4,15.4,3.7,8.9.5,8.9-1.7,0,3.7,6,4.5,7.1l44.9-70.8,15.4-25.3c-13.3,26.3-73,120.1-73.4,125,6.3-4.3,10.1-12.1,14.7-18.7,6.4-9.2,11-3.7,14.2-10.5.2-.3-5,1.4-4.8,1.1l9.2-8.2c2.5-2.5,4.7-4.3,6.9-6.9l4-6.7-8.1,3.3c.3-1,6.6-4.8,8.1-6.8,5.1-7.5,14.4-20.2,19.5-30.2C118,31.5,122.39,18.8,125.89,0Z"/><path class="cls-1" d="M151.39,62.1l4.1,19.6h-13.2L139,63.9h-5.3l-3.5,17.8h-12.8l9.3-47h19.6c5.3,0,9.2,1.2,11.6,3.7s3.6,5.8,3.5,10C161.09,55.1,157.79,59.7,151.39,62.1Zm-15.7-8h5c4.8,0,7.3-1.7,7.5-5.2.1-2.9-1.9-4.3-6-4.3h-4.7Zm61.5,16.8L195,81.7H162l9.3-47h32.2L201.39,45h-19.1l-1.5,7.4H197l-2.1,10.2h-16.1l-1.7,8.3Zm3.3,10.8h16.4a61.11,61.11,0,0,0,10.8-.7,18,18,0,0,0,8-3.9,22.62,22.62,0,0,0,6.9-8.8,31.5,31.5,0,0,0,3-12.5,27.16,27.16,0,0,0-1.3-9.7,15.86,15.86,0,0,0-10.8-10.6,41.92,41.92,0,0,0-8.8-.8h-14.9ZM216,71.2l5.2-26.3H225c5.1,0,7.4,3.5,7.1,10.4a23.28,23.28,0,0,1-1.9,9.3,11.4,11.4,0,0,1-4.1,5.2c-1.6,1-4,1.4-7.1,1.4Zm53.3,1h-12.2l-4.4,9.5h-11.1l22.5-47h14.1l5.1,47H270Zm-.6-9.8-1.2-13.6-6.4,13.6Zm84.9,9.8h-12.1L337,81.7h-11.1l22.6-47h14.1l5,47h-13.2Zm-.5-9.8-1.2-13.6-6.4,13.6Zm14.1-42.8,3.7,5.7c-3.3,4.2-6.5,6.2-9.7,6.2-1.6,0-3.6-.8-6-2.3a7.25,7.25,0,0,0-3.7-1.6c-1.9,0-3.7,1.2-5.5,3.7l-3.6-5.6c3.3-4.2,6.4-6.2,9.3-6.2a9.79,9.79,0,0,1,5.2,1.9c2.1,1.4,3.6,2,4.5,2C363,23.4,365,22.2,367.19,19.6Zm23.9,63.3a19,19,0,0,1-13.6-5.4c-3.7-3.7-5.5-8.9-5.2-15.6.3-8,2.7-14.6,7.3-20.1A21.78,21.78,0,0,1,397,33.5a17.67,17.67,0,0,1,13.6,5.8c3.4,3.8,5,8.9,4.8,15.1-.3,7.9-2.7,14.7-7.2,20.2A20.93,20.93,0,0,1,391.09,82.9Zm.5-10.9a5.75,5.75,0,0,0,5.3-3.1,26.39,26.39,0,0,0,3.2-9c.8-4,1.3-6.7,1.4-8.1,0-2.4-.4-4.3-1.4-5.5a5.18,5.18,0,0,0-4.1-1.9c-3.3,0-5.7,2.5-7.3,7.4a54.55,54.55,0,0,0-2.5,13Q385.89,72,391.59,72Zm-92.5-10.7a27.18,27.18,0,0,1,1.2-7.3,17,17,0,0,1,2.9-5.7,13.69,13.69,0,0,1,4.6-3.7,13.34,13.34,0,0,1,6.1-1.3,8.11,8.11,0,0,1,3.3.6,5.79,5.79,0,0,1,2.5,1.5,8.34,8.34,0,0,1,1.6,2.1,11.72,11.72,0,0,1,.9,2.4l10.7-3.9a15.54,15.54,0,0,0-1.8-5.1,12.71,12.71,0,0,0-3.4-4.3,17.58,17.58,0,0,0-5.4-3,25.06,25.06,0,0,0-7.7-1.1,27.73,27.73,0,0,0-7.8,1.1,25.62,25.62,0,0,0-6.8,2.8,24.46,24.46,0,0,0-5.5,4.6,25.56,25.56,0,0,0-4.3,5.9,40.11,40.11,0,0,0-2.7,7.1,36,36,0,0,0-1.2,8.2,25.22,25.22,0,0,0,.9,7.9,16.88,16.88,0,0,0,3.4,6.5,17.21,17.21,0,0,0,6.1,4.3,23.67,23.67,0,0,0,8.9,1.5,26.6,26.6,0,0,0,7.7-1,23.27,23.27,0,0,0,6.2-2.7,27.31,27.31,0,0,0,4.8-4.1,23.77,23.77,0,0,0,3.5-5l-8.4-5.3a13.11,13.11,0,0,1-2,2.8,9.56,9.56,0,0,1-2.6,2.3,9,9,0,0,1-3.2,1.7,12.26,12.26,0,0,1-3.9.6,9.37,9.37,0,0,1-3.9-.7,7.05,7.05,0,0,1-2.7-2.1,7.29,7.29,0,0,1-1.6-3.3A14.64,14.64,0,0,1,299.09,61.3Zm1,35.1a9.15,9.15,0,0,1-1.6-.1,10.87,10.87,0,0,1-1.8-.1l1.1-4.1a7.84,7.84,0,0,0,1.4.2,6.15,6.15,0,0,0,1.3.1,9.08,9.08,0,0,0,3.8-.6,2.31,2.31,0,0,0,1.4-2.1,1.94,1.94,0,0,0-.8-1.6,5.18,5.18,0,0,0-2.8-.5h-1.7l3.4-5.9h4.6l-1.6,2.9a5.72,5.72,0,0,1,3.6,1.1,3.94,3.94,0,0,1,1.3,3.4,6.39,6.39,0,0,1-3,5.3C306.89,95.8,304,96.4,300.09,96.4Z"/><path class="cls-2" d="M107.69,133.2h3.4l6.5-34h-3.4Zm13.8,0H124l5.6-28.8,13.9,28.8h3.7l6.5-34h-3.3l-5.6,28.6L131,99.2h-3.8l-6.6,34Zm40.3,0h3.4l6-31.2H183l.5-2.8h-26.8l-.5,2.8h11.7Zm19.2,0,6.6-34h24.6l-.5,2.8h-21.2l-2.4,12.3h19.3l-.5,2.9h-19.3L185,130.4h21.8l-.6,2.8Zm29.7,0h22.6l.5-2.8h-19.2l6-31.2h-3.3Zm27.1,0h3.4l6.5-34h-3.4Zm37.3,0h2.7l3.4-17.5h-14.8l-.6,2.9h11.6l-.1.1a15.32,15.32,0,0,1-5.1,9.3,14.81,14.81,0,0,1-9.6,3.4c-3.6,0-6.3-1.4-8-4.2s-2.1-6.4-1.2-11.1,2.7-8.5,5.5-11.2a14,14,0,0,1,9.9-3.7,10.53,10.53,0,0,1,6.9,2.1,7.37,7.37,0,0,1,2.7,5.9H282a9.46,9.46,0,0,0-3.3-8c-2.2-1.9-5.4-2.8-9.4-2.8a18,18,0,0,0-12.4,4.6c-3.7,3.2-6,7.6-7.1,13.1s-.4,10,1.9,13.2,5.8,4.9,10.5,4.9a16.75,16.75,0,0,0,7.6-1.9,17.45,17.45,0,0,0,6-4.7Zm8.4,0h25.2l.6-2.8h-21.8l2.5-13.2h19.4l.5-2.9h-19.3L293,102h21.1l.6-2.8h-24.6Zm32.1,0h-.9l6.6-34h3.8L339,127.8l5.5-28.6h3.4l-6.6,34h-3.7l-13.9-28.8-5.6,28.8Zm41.9,0h3.4l6-31.2h11.7l.6-2.8h-26.7l-.6,2.8h11.6Zm19.2,0,6.6-34h24.5l-.5,2.8h-21.1l-2.4,12.3h19.3l-.6,2.9h-19.3l-2.5,13.2h21.7l-.5,2.8Z"/><path class="cls-2" d="M26.19,56.5l-1.5-6.1,36.5-4.1.3,5.8ZM6.29,52.3c-4.2-12.8,1.2-15,5.1-2.4a306.74,306.74,0,0,1,13.3,75.6c-.1,4.7-.1,3.1-.3,7.1-.5,13.9-6.7,13.7-6.2-.1a42.11,42.11,0,0,1,1.3-10.3,10.24,10.24,0,0,0,.1-3.9c-.2-1.3-1.4-3.3-2.8-2.1-4.4,4-7.1,35.6,6.7,33.7a26.53,26.53,0,0,0,3-.6c8.8-2.2,49.5-13,55.2-14.5,6.3-1.7,5-1,5.5-8.1a208,208,0,0,0,.3-27.3c0-.3-.4-6.3-.4-6.5l-3.8,5.6a205.34,205.34,0,0,1-.6,25.9c-.4,5.3.4,4.4-4.6,5.7-9.9,2.6-22.7,5.3-39.8,9.7-10.6,2.8-9.1,4.4-9-5.7A270.73,270.73,0,0,0,15,46c-2-5.9-2.8-4.9,3.7-6.1,15-2.7,30.4-2.9,45.4-2.7,5.9.1,5.4-.7,7.1,3.4.1.4.9,3.1,1,3.5,1-1.8,1.9-3.7,2.8-5.6.2-.4,0-.7-.3-1.6-2.8-7.7-1.1-7.1-9-7.2-19.6-.2-40,0-59.6,4.5h0c-12.4,2.5-2.9,29,2.5,33.6.9.7,1.5,1,2.4.3,1.8-1.7-.5-5.9-1.5-7.7A47.62,47.62,0,0,1,6.29,52.3Zm55.1,70.9-.5-5.1,14.9-2.4.4,5ZM36.59,116l-.4-5,12.9-1.4.4,4.9Zm-1.3-12.6-.5-5,14.3-1.6.5,5Zm-1.4-11.7L33,86.1l12.6-1.4.3,5.6Zm-2-12.1-1-5.6,18.9-2.1.3,5.6Zm-2.5-11.4-1.3-6.1,25.8-3,.3,5.9Z"/></g></g></svg>